<svg xmlns="http://www.w3.org/2000/svg" viewBox="0 0 465 565" width="120" height="120">
  <g transform="translate(0, 563) scale(1, -1)">
    <path d="M247 270 213 292H214C202 303 195 330 195 358C195 369 197 387 199 405C201 422 203 441 203 453C203 511 174 519 116 523C108 523 93 527 86 563C86 563 2 554 2 484C2 439 43 411 106 411C121 411 125 388 124 357C124 333 122 309 122 285C121 267 133 242 160 222C207 189 256 155 303 122C306 119 310 115 311 106H49L16 0H382C408 7 456 59 456 100C456 114 447 130 425 146C402 161 379 177 356 193H358C342 209 337 233 337 262C337 306 364 376 393 405C403 403 420 395 439 385C458 411 463 450 463 461C463 512 420 519 378 522C367 523 344 527 341 560C341 560 256 562 256 484C256 452 283 425 328 413C299 374 268 321 247 270Z" fill="#c9a84c"/>
  </g>
</svg>
